<svg width="20" height="20" viewBox="0 0 20 20" fill="none" xmlns="http://www.w3.org/2000/svg">
<path d="M9.99984 15V18.3333M4.99984 15H14.9998C16.8408 15 18.3332 13.5076 18.3332 11.6666V4.99996C18.3332 3.15901 16.8408 1.66663 14.9998 1.66663H4.99984C3.15889 1.66663 1.6665 3.15901 1.6665 4.99996V11.6666C1.6665 13.5076 3.15889 15 4.99984 15Z" stroke="#CCD2E3" stroke-width="1.25" stroke-linecap="round"/>
<path d="M11.6665 18.3334L8.33317 18.3334" stroke="#CCD2E3" stroke-width="1.25" stroke-linecap="round"/>
<path d="M5 8.33333H5.83333C6.75381 8.33333 7.5 7.58714 7.5 6.66667V6.25C7.5 5.55964 8.05964 5 8.75 5C9.44036 5 10 5.55964 10 6.25V10.4167C10 11.107 10.5596 11.6667 11.25 11.6667C11.9404 11.6667 12.5 11.107 12.5 10.4167V10C12.5 9.07953 13.2462 8.33333 14.1667 8.33333H15" stroke="#64A0F7" stroke-width="1.25" stroke-linecap="round"/>
</svg>
