<svg width="20" height="20" viewBox="0 0 20 20" fill="none" xmlns="http://www.w3.org/2000/svg">
<path d="M16.6668 5.83337L10.0002 9.16671L3.3335 5.83337" stroke="#CCD2E3" stroke-width="1.25" stroke-linecap="round" stroke-linejoin="round"/>
<path d="M15.5205 3.88964L11.3538 1.96518C10.4919 1.56711 9.50809 1.56711 8.6462 1.96518L4.47954 3.88964C3.27578 4.44562 2.5 5.68616 2.5 7.0551V12.9448C2.5 14.3138 3.27578 15.5543 4.47954 16.1103L8.64621 18.0347C9.50809 18.4328 10.4919 18.4328 11.3538 18.0347L15.5205 16.1103C16.7242 15.5543 17.5 14.3138 17.5 12.9448V7.0551C17.5 5.68616 16.7242 4.44562 15.5205 3.88964Z" stroke="#CCD2E3" stroke-width="1.25" stroke-linecap="round" stroke-linejoin="round"/>
<path d="M6.6665 3.33337L14.1665 7.50004V16.25" stroke="#64A0F7" stroke-width="1.25" stroke-linecap="round" stroke-linejoin="round"/>
<path d="M10 9.16663V18.3333" stroke="#CCD2E3" stroke-width="1.25" stroke-linecap="round" stroke-linejoin="round"/>
</svg>
