<svg width="20" height="20" viewBox="0 0 20 20" fill="none" xmlns="http://www.w3.org/2000/svg">
<path d="M17.5 15L10.6769 18.0325C10.246 18.2241 9.75404 18.2241 9.3231 18.0325L2.5 15M17.5 10.8334L10.6769 13.8659C10.246 14.0574 9.75404 14.0574 9.3231 13.8659L2.5 10.8334" stroke="#CCD2E3" stroke-width="1.25" stroke-linecap="round" stroke-linejoin="round"/>
<path d="M9.2547 9.62734L3.15743 6.5787C2.54322 6.2716 2.54323 5.39509 3.15743 5.08799L9.2547 2.03936C9.72391 1.80475 10.2762 1.80475 10.7454 2.03936L16.8427 5.08799C17.4569 5.39509 17.4569 6.2716 16.8427 6.5787L10.7454 9.62734C10.2762 9.86194 9.72391 9.86194 9.2547 9.62734Z" stroke="#64A0F7" stroke-width="1.25" stroke-linecap="round" stroke-linejoin="round"/>
</svg>
