<svg width="20" height="21" viewBox="0 0 20 21" fill="none" xmlns="http://www.w3.org/2000/svg">
<path d="M14.1663 5.83325L5.83301 5.83325" stroke="#64A0F7" stroke-width="1.25" stroke-linecap="round" stroke-linejoin="round"/>
<path d="M14.1663 9.16675L5.83301 9.16675" stroke="#64A0F7" stroke-width="1.25" stroke-linecap="round" stroke-linejoin="round"/>
<path d="M9.99967 12.5L5.83301 12.5" stroke="#64A0F7" stroke-width="1.25" stroke-linecap="round" stroke-linejoin="round"/>
<path d="M15.8333 1.66675H4.16667C3.24619 1.66675 2.5 2.41294 2.5 3.33342V15.962C2.5 17.1164 3.6451 17.9212 4.7312 17.5302L6.03267 17.0617C6.43934 16.9152 6.88699 16.9326 7.28115 17.1099L9.31606 18.0256C9.75101 18.2214 10.249 18.2214 10.6839 18.0256L12.7189 17.1099C13.113 16.9326 13.5607 16.9152 13.9673 17.0617L15.2688 17.5302C16.3549 17.9212 17.5 17.1164 17.5 15.962V3.33341C17.5 2.41294 16.7538 1.66675 15.8333 1.66675Z" stroke="#CCD2E3" stroke-width="1.25" stroke-linecap="round"/>
</svg>
