<svg width="20" height="20" viewBox="0 0 20 20" fill="none" xmlns="http://www.w3.org/2000/svg">
<rect x="10.8335" y="2.5" width="7.5" height="7.5" rx="1.66667" stroke="#64A0F7" stroke-width="1.25"/>
<path d="M15.4165 5L13.7498 5" stroke="#64A0F7" stroke-width="1.25" stroke-linecap="round" stroke-linejoin="round"/>
<path d="M1.6665 7.5H3.33317L8.55171 9.78311C9.35324 10.1338 9.72182 11.0654 9.37719 11.8695V11.8695C9.03071 12.678 8.09446 13.0525 7.28602 12.706L5.83317 12.0833" stroke="#CCD2E3" stroke-width="1.25" stroke-linecap="round" stroke-linejoin="round"/>
<path d="M1.94601 14.441C1.63728 14.2866 1.26186 14.4118 1.10749 14.7205C0.953119 15.0292 1.07826 15.4046 1.387 15.559L1.94601 14.441ZM9.44601 11.941L8.887 11.6615L8.32798 12.7795L8.887 13.059L9.44601 11.941ZM11.4441 13.6388L11.1646 14.1978L11.4441 13.6388ZM13.6802 14.7917H14.9998V13.5417H13.6802V14.7917ZM14.9998 16.875H8.24029V18.125H14.9998V16.875ZM5.53837 16.2372L1.94601 14.441L1.387 15.559L4.97936 17.3552L5.53837 16.2372ZM11.7236 13.0798L9.44601 11.941L8.887 13.059L11.1646 14.1978L11.7236 13.0798ZM8.24029 16.875C7.30235 16.875 6.37729 16.6566 5.53837 16.2372L4.97936 17.3552C5.99185 17.8614 7.1083 18.125 8.24029 18.125V16.875ZM16.0415 15.8333C16.0415 16.4086 15.5751 16.875 14.9998 16.875V18.125C16.2655 18.125 17.2915 17.099 17.2915 15.8333H16.0415ZM14.9998 14.7917C15.5751 14.7917 16.0415 15.258 16.0415 15.8333H17.2915C17.2915 14.5677 16.2655 13.5417 14.9998 13.5417V14.7917ZM13.6802 13.5417C13.001 13.5417 12.3311 13.3835 11.7236 13.0798L11.1646 14.1978C11.9457 14.5884 12.8069 14.7917 13.6802 14.7917V13.5417Z" fill="#CCD2E3"/>
</svg>
